<?xml version="1.0" encoding="iso-8859-1"?>
<!-- Generator: Adobe Illustrator 21.1.0, SVG Export Plug-In . SVG Version: 6.00 Build 0)  -->
<svg version="1.1" id="Layer_1" xmlns="http://www.w3.org/2000/svg" xmlns:xlink="http://www.w3.org/1999/xlink" x="0px" y="0px"
	 viewBox="0 0 24 24" style="enable-background:new 0 0 24 24;" xml:space="preserve">
<g>
	<path d="M12,0C5.373,0,0,5.373,0,12s5.373,12,12,12s12-5.373,12-12S18.627,0,12,0z M12,22
		C6.477,22,2,17.521,2,12C2,6.477,6.477,2,12,2s10,4.478,10,10C22,17.521,17.523,22,12,22z"/>
	<polygon points="13,6 11,6 11,10.999 6,10.999 6,12.999 11,12.999 11,17.999 13,17.999 13,12.999 18,12.999
		18,10.999 13,10.999 	"/>
</g>
</svg>
