<?xml version="1.0" encoding="utf-8"?>
<!-- Generator: Adobe Illustrator 21.1.0, SVG Export Plug-In . SVG Version: 6.00 Build 0)  -->
<svg version="1.1" id="图层_1" xmlns="http://www.w3.org/2000/svg" xmlns:xlink="http://www.w3.org/1999/xlink" x="0px" y="0px"
	 viewBox="0 0 30 30" style="enable-background:new 0 0 30 30;" xml:space="preserve">
<g>
	<path class="st0" d="M15,0C6.7,0,0,6.7,0,15c0,8.3,6.7,15,15,15c8.3,0,15-6.7,15-15C30,6.7,23.3,0,15,0z M21.9,20.5
		c-0.4,0.6-2,1.6-2.6,1.5c0,0-3.4-0.1-7.2-4.1c-3.3-3.4-4-7.2-4-7.2c-0.1-0.6,0.9-2.3,1.5-2.6c0.6-0.4,1,0.1,1,0.1
		c0.1,0.1,1.5,2,2,2.6c0.4,0.6,0.2,0.8,0.1,0.9c0,0.1-0.9,1.6-0.9,1.6s0,1.1,2,3.1c2,2,3.1,2,3.1,2l1.5-1.1c0,0,0.3-0.1,0.7,0.1
		c0.4,0.2,2.9,2,2.9,2S22.2,19.9,21.9,20.5z"/>
</g>
</svg>
