<?xml version="1.0" encoding="iso-8859-1"?>
<svg version="1.1" id="Layer_1" xmlns="http://www.w3.org/2000/svg" xmlns:xlink="http://www.w3.org/1999/xlink" x="0px" y="0px"
	 viewBox="0 0 20 20" xml:space="preserve">
<g>
	<path style="fill-rule:evenodd;clip-rule:evenodd;" d="M16.021,11.021h-3c-1.105,0-2,0.895-2,2v3
		c0,1.104,0.895,2,2,2h3c1.105,0,2-0.896,2-2v-3C18.021,11.916,17.125,11.021,16.021,11.021z M16.021,16.021h-3v-3h3V16.021z
			M7.021,11.021h-3c-1.105,0-2,0.895-2,2v3c0,1.104,0.896,2,2,2h3c1.105,0,2-0.896,2-2v-3C9.021,11.916,8.125,11.021,7.021,11.021z
			M7.021,16.021h-3v-3h3V16.021z M16.021,2.021h-3c-1.105,0-2,0.895-2,2v3c0,1.104,0.895,2,2,2h3c1.105,0,2-0.896,2-2v-3
		C18.021,2.916,17.125,2.021,16.021,2.021z M16.021,7.021h-3v-3h3V7.021z M7.021,2.021h-3c-1.105,0-2,0.895-2,2v3
		c0,1.104,0.896,2,2,2h3c1.105,0,2-0.896,2-2v-3C9.021,2.916,8.125,2.021,7.021,2.021z M7.021,7.021h-3v-3h3V7.021z"/>
</g>
</svg>
