<?xml version="1.0" encoding="iso-8859-1"?>
<!-- Generator: Adobe Illustrator 21.1.0, SVG Export Plug-In . SVG Version: 6.00 Build 0)  -->
<svg version="1.1" id="Layer_1" xmlns="http://www.w3.org/2000/svg" xmlns:xlink="http://www.w3.org/1999/xlink" x="0px" y="0px"
	 viewBox="0 0 20 20" style="enable-background:new 0 0 20 20;" xml:space="preserve">
<path d="M11.907,9.498l4.648-4.648c0.288-0.289,0.288-0.755,0-1.042l-0.521-0.521
	c-0.288-0.288-0.754-0.288-1.042,0l-4.648,4.648L5.695,3.286c-0.288-0.288-0.755-0.288-1.042,0L4.131,3.808
	c-0.288,0.287-0.288,0.754,0,1.042l4.648,4.648l-4.648,4.648c-0.288,0.288-0.288,0.754,0,1.043l0.521,0.521
	c0.288,0.288,0.754,0.288,1.042,0l4.648-4.648l4.648,4.648c0.288,0.288,0.754,0.288,1.042,0l0.521-0.521
	c0.288-0.289,0.288-0.755,0-1.043L11.907,9.498z"/>
</svg>
