<?xml version="1.0" encoding="iso-8859-1"?>
<!-- Generator: Adobe Illustrator 21.1.0, SVG Export Plug-In . SVG Version: 6.00 Build 0)  -->
<svg version="1.1" id="Layer_1" xmlns="http://www.w3.org/2000/svg" xmlns:xlink="http://www.w3.org/1999/xlink" x="0px" y="0px"
	 viewBox="0 0 20 20" style="enable-background:new 0 0 20 20;" xml:space="preserve">
<g>
	<path d="M18.984,6L14,1.016V1h-2H3C1.896,1,1,1.896,1,3v14c0,1.104,0.896,2,2,2h14c1.104,0,2-0.896,2-2V8V6
		H18.984z M16.155,6H14V3.845L16.155,6z M17,17H3V3h9v3v2h5V17z"/>
	<path d="M11.285,9.285c-0.375,0.375-0.375,0.983,0,1.357L13.297,12l-2.012,1.357
		c-0.375,0.375-0.375,0.983,0,1.358s0.983,0.375,1.358,0l2.61-1.761c0.168-0.04,0.331-0.108,0.462-0.239
		C15.912,12.519,16,12.258,15.989,12c0.01-0.258-0.077-0.519-0.274-0.715c-0.131-0.131-0.294-0.2-0.462-0.239l-2.61-1.761
		C12.268,8.91,11.66,8.91,11.285,9.285z"/>
	<path d="M8.715,9.285c-0.375-0.375-0.983-0.375-1.358,0l-2.61,1.761c-0.168,0.04-0.331,0.108-0.462,0.239
		C4.088,11.481,4,11.742,4.011,12C4,12.258,4.088,12.519,4.285,12.715c0.131,0.131,0.294,0.2,0.462,0.239l2.61,1.761
		c0.375,0.375,0.983,0.375,1.358,0s0.375-0.983,0-1.358L6.703,12l2.012-1.358C9.09,10.268,9.09,9.66,8.715,9.285z"/>
</g>
</svg>
