<?xml version="1.0" encoding="UTF-8"?>
<svg width="20px" height="20px" viewBox="0 0 20 20" version="1.1" xmlns="http://www.w3.org/2000/svg" xmlns:xlink="http://www.w3.org/1999/xlink">
    <!-- Generator: Sketch 49.1 (51147) - http://www.bohemiancoding.com/sketch -->
    <title>icon_组合人群包</title>
    <desc>Created with Sketch.</desc>
    <defs></defs>
    <g id="切图" stroke="none" stroke-width="1" fill="none" fill-rule="evenodd">
        <g id="Artboard-6" fill="#A8ABB3" fill-rule="nonzero">
            <g id="icon_组合人群包">
                <path d="M10,20 L20,20 L20,13 L18,13 L18,10 L10,10 L10,20 Z M16,15 L18,15 L18,16 L18,18 L16,18 L12,18 L12,12 L16,12 L16,15 Z M2,6 L2,16 L9,16 L9,18 L0,18 L0,0 L9.47,0 C13.6287042,1.17806501e-15 17,3.37129583 17,7.53 L17,9 L14.59,9 C13.8184444,7.1864064 12.0408821,6.0066084 10.07,6 L2,6 Z M2,2 L2,4.10526316 L10.2476415,4.10526316 C12.0051393,4.10766395 13.6989955,4.78299425 15,6 C14.2315434,3.61789045 12.0715635,2.00763728 9.63443396,2 L2,2 Z" id="Combined-Shape"></path>
            </g>
        </g>
    </g>
</svg>
