<?xml version="1.0" encoding="utf-8"?>
<!-- Generator: Adobe Illustrator 21.1.0, SVG Export Plug-In . SVG Version: 6.00 Build 0)  -->
<svg version="1.1" id="图层_1" xmlns="http://www.w3.org/2000/svg" xmlns:xlink="http://www.w3.org/1999/xlink" x="0px" y="0px"
	 viewBox="0 0 18 16" style="enable-background:new 0 0 18 16;" xml:space="preserve">
<style type="text/css">
	.st0{fill:#A8ABB3;}
</style>
<title>复杂话务icon</title>
<desc>Created with Sketch.</desc>
<path class="st0" d="M17.7,2.3l-2.1-2C15.5,0.1,15.2,0,14.9,0c-0.3,0-0.5,0.1-0.7,0.3l-1.9,2c-0.4,0.4-0.4,1,0,1.4
	C12.5,3.9,12.7,4,13,4c0.3,0,0.5-0.1,0.7-0.3L14,3.4v7.7c0,1.6-0.9,2.9-2,2.9s-2-1.3-2-2.9l0-6.2C10,2.2,8.2,0,6,0
	C3.8,0,2,2.2,2,4.9v7.7l-0.3-0.3c-0.4-0.4-1-0.4-1.4,0c-0.4,0.4-0.4,1,0,1.4l2.1,2C2.5,15.9,2.8,16,3.1,16c0,0,0,0,0,0
	c0.3,0,0.5-0.1,0.7-0.3l1.9-2c0.4-0.4,0.4-1,0-1.4c-0.4-0.4-1-0.4-1.4,0L4,12.6V4.9C4,3.3,4.9,2,6,2c1.1,0,2,1.3,2,2.9l0,6.2
	c0,2.7,1.8,4.9,4,4.9c2.2,0,4-2.2,4-4.9V3.4l0.3,0.3c0.4,0.4,1,0.4,1.4,0C18.1,3.3,18.1,2.7,17.7,2.3z"/>
</svg>
