<?xml version="1.0" encoding="iso-8859-1"?>
<!-- Generator: Adobe Illustrator 21.1.0, SVG Export Plug-In . SVG Version: 6.00 Build 0)  -->
<svg version="1.1" id="&#x56FE;&#x5C42;_1" xmlns="http://www.w3.org/2000/svg" xmlns:xlink="http://www.w3.org/1999/xlink" x="0px"
	 y="0px" viewBox="0 0 20 20" style="enable-background:new 0 0 20 20;" xml:space="preserve">
<g>
	<rect x="17.123" y="7.944"  width="2.002" height="1.993"/>
	<rect x="17.123" y="4.955"  width="2.002" height="1.993"/>
	<path d="M17.123,0.969h-1.001v1.993h1.001v0.996h2.002V2.962C19.125,1.861,18.229,0.969,17.123,0.969z"/>
	<path d="M10.115,2.962h1.001V0.969h-1.001c-1.106,0-2.002,0.892-2.002,1.993v0.996h2.002V2.962z"/>
	<rect x="12.117" y="0.969"  width="3.003" height="1.993"/>
	<path d="M17.123,11.93h-1.001v1.993h1.001c1.106,0,2.002-0.892,2.002-1.993v-0.996h-2.002V11.93z"/>
	<path d="M13.139,8.082c0-1.143-0.93-2.069-2.078-2.069h-0.946V4.955H8.112v1.059H3.203
		c-1.148,0-2.078,0.926-2.078,2.069V16.9c0,1.143,0.93,2.069,2.078,2.069h7.857c1.148,0,2.078-0.926,2.078-2.069v-2.976h1.981V11.93
		h-1.981V8.082z M11.137,16.9c0,0.042-0.034,0.076-0.076,0.076H3.203c-0.042,0-0.076-0.034-0.076-0.076V8.082
		c0-0.042,0.034-0.076,0.076-0.076h7.857c0.042,0,0.076,0.034,0.076,0.076V16.9z"/>
</g>
</svg>
