<?xml version="1.0" encoding="utf-8"?>
<!-- Generator: Adobe Illustrator 22.0.1, SVG Export Plug-In . SVG Version: 6.00 Build 0)  -->
<svg version="1.1" id="图层_1" xmlns="http://www.w3.org/2000/svg" xmlns:xlink="http://www.w3.org/1999/xlink" x="0px" y="0px"
	 viewBox="0 0 20 20" style="enable-background:new 0 0 20 20;" xml:space="preserve">
<title>ic_更多</title>
<desc>Created with Sketch.</desc>
<g id="ic_更多">
	<g id="Group-7-Copy-2">
		
			<g id="more" transform="translate(10.000000, 10.000000) rotate(-270.000000) translate(-10.000000, -10.000000) translate(2.000000, 8.000000)">
			<path id="Combined-Shape" d="M14,3.5c-0.8,0-1.5-0.7-1.5-1.5s0.7-1.5,1.5-1.5s1.5,0.7,1.5,1.5S14.8,3.5,14,3.5z M8,3.5
				C7.2,3.5,6.5,2.8,6.5,2S7.2,0.5,8,0.5S9.5,1.2,9.5,2S8.8,3.5,8,3.5z M2,3.5C1.2,3.5,0.5,2.8,0.5,2S1.2,0.5,2,0.5S3.5,1.2,3.5,2
				S2.8,3.5,2,3.5z"/>
		</g>
	</g>
</g>
</svg>
