<svg id="图层_1" data-name="图层 1" xmlns="http://www.w3.org/2000/svg" viewBox="0 0 20 20"><defs><style>.cls-1{fill:#A8ABB3;}</style></defs><title>画板 1 副本</title><path class="cls-1" d="M2,16V6h8.2a4.79,4.79,0,0,1,4.43,3L15,9a6,6,0,0,1,2,.35V7.52A7.52,7.52,0,0,0,9.48,0H0V18H9.81a6,6,0,0,1-.72-2ZM2,2H9.48a5.53,5.53,0,0,1,5.21,3.7A6.81,6.81,0,0,0,10.2,4H2Z"/><path class="cls-1" d="M19,15a4.12,4.12,0,0,0-.16-1.06l1-.57-1-1.74-1,.57A4,4,0,0,0,16,11.14V10H14v1.14a4,4,0,0,0-1.85,1.06l-1-.57-1,1.74,1,.57A4.12,4.12,0,0,0,11,15a4.12,4.12,0,0,0,.16,1.06l-1,.57,1,1.74,1-.57A4,4,0,0,0,14,18.86V20h2V18.86a4,4,0,0,0,1.85-1.06l1,.57,1-1.74-1-.57A4.12,4.12,0,0,0,19,15Zm-4,2a2,2,0,1,1,2-2A2,2,0,0,1,15,17Z"/></svg>
