<?xml version="1.0" encoding="UTF-8"?>
<svg width="15px" xml:space="preserve" height="15px" viewBox="0 0 17 17" version="1.1" xmlns="http://www.w3.org/2000/svg" xmlns:xlink="http://www.w3.org/1999/xlink">
    <!-- Generator: Sketch 46.2 (44496) - http://www.bohemiancoding.com/sketch -->
    <title>Shape-path@2x</title>
    <desc>Created with Sketch.</desc>
    <defs></defs>
    <g id="Page-1" stroke="none" stroke-width="5">
        <path d="M14.9995364,7.99978644 C14.9995819,7.99974095 14.9996531,5.99981214 14.99975,2 L8.99975,2 C9.00017164,2 6.66698068,4.33333333 2.00017712,9 L7.99974884,14.999574 L14.9995364,7.99978644 Z M14.99975,0 C16.10475,0 16.99975,0.895 16.99975,2 L16.99975,8 C16.99975,8.53 16.78875,9.039 16.41375,9.414 L9.41375,16.414 C9.02375,16.805 8.51175,17 7.99975,17 C7.48775,17 6.97575,16.805 6.58575,16.414 L0.58575,10.414 C-0.19525,9.633 -0.19525,8.367 0.58575,7.586 L7.58575,0.586 C7.96075,0.211 8.46975,0 8.99975,0 L14.99975,0 Z M11.5,7 C12.3284271,7 13,6.32842712 13,5.5 C13,4.67157288 12.3284271,4 11.5,4 C10.6715729,4 10,4.67157288 10,5.5 C10,6.32842712 10.6715729,7 11.5,7 Z" id="Shape-path" ></path>
    </g>
</svg>
