<?xml version="1.0" encoding="iso-8859-1"?>
<!-- Generator: Adobe Illustrator 16.0.0, SVG Export Plug-In . SVG Version: 6.00 Build 0)  -->
<!DOCTYPE svg PUBLIC "-//W3C//DTD SVG 1.1//EN" "http://www.w3.org/Graphics/SVG/1.1/DTD/svg11.dtd">
<svg x="0px" y="0px"
	 width="20px" height="20px" viewBox="0 0 20 20">
<g>
	<path d="M18.5,4H16H4H1.5C1.224,4,1,4.224,1,4.5v1C1,5.776,1.224,6,1.5,6H2v11c0,1.104,0.896,2,2,2h12
		c1.104,0,2-0.896,2-2V6h0.5C18.775,6,19,5.776,19,5.5v-1C19,4.224,18.775,4,18.5,4z M16,16c0,0.552-0.448,1-1,1H5
		c-0.552,0-1-0.448-1-1V6h12V16z"/>
	<path d="M7.5,3h5C12.775,3,13,2.776,13,2.5v-1C13,1.224,12.775,1,12.5,1h-5C7.224,1,7,1.224,7,1.5v1
		C7,2.776,7.224,3,7.5,3z"/>
	<path d="M11.5,15h1c0.275,0,0.5-0.225,0.5-0.5v-6C13,8.224,12.775,8,12.5,8h-1C11.225,8,11,8.224,11,8.5v6
		C11,14.775,11.225,15,11.5,15z"/>
	<path d="M7.5,15h1C8.776,15,9,14.775,9,14.5v-6C9,8.224,8.776,8,8.5,8h-1C7.224,8,7,8.224,7,8.5v6
		C7,14.775,7.224,15,7.5,15z"/>
</g>
</svg>
