<?xml version="1.0" encoding="iso-8859-1"?>
<!-- Generator: Adobe Illustrator 21.1.0, SVG Export Plug-In . SVG Version: 6.00 Build 0)  -->
<svg version="1.1" id="Layer_1" xmlns="http://www.w3.org/2000/svg" xmlns:xlink="http://www.w3.org/1999/xlink" x="0px" y="0px"
	 viewBox="0 0 20 20" style="enable-background:new 0 0 20 20;" xml:space="preserve">
<g>
	<path d="M16,3h-1c0-1.104-0.896-2-2-2H7C5.896,1,5,1.896,5,3H4C2.896,3,2,3.896,2,5v12c0,1.104,0.896,2,2,2
		h12c1.104,0,2-0.896,2-2V5C18,3.896,17.104,3,16,3z M7,3h6v2H7V3z M16,17H4V5h1c0,1.104,0.896,2,2,2h6c1.104,0,2-0.896,2-2h1V17z"
		/>
	<path d="M13.5,9h-7C6.224,9,6,9.224,6,9.5v1C6,10.776,6.224,11,6.5,11h7c0.276,0,0.5-0.224,0.5-0.5v-1
		C14,9.224,13.776,9,13.5,9z"/>
	<path d="M13.5,13h-7C6.224,13,6,13.224,6,13.5v1C6,14.776,6.224,15,6.5,15h7c0.276,0,0.5-0.224,0.5-0.5v-1
		C14,13.224,13.776,13,13.5,13z"/>
</g>
</svg>
