<?xml version="1.0" encoding="utf-8"?>
<!-- Generator: Adobe Illustrator 17.0.0, SVG Export Plug-In . SVG Version: 6.00 Build 0)  -->
<!DOCTYPE svg PUBLIC "-//W3C//DTD SVG 1.1//EN" "http://www.w3.org/Graphics/SVG/1.1/DTD/svg11.dtd">
<svg version="1.1" id="图层_1" xmlns="http://www.w3.org/2000/svg" xmlns:xlink="http://www.w3.org/1999/xlink" x="0px" y="0px"
	 width="20px" height="20px" viewBox="0 0 20 20" enable-background="new 0 0 20 20" xml:space="preserve">
<g>
	<g>
		<path fill-rule="evenodd" clip-rule="evenodd" d="M15.703,8.421c-0.422-0.409-1.011-0.377-1.432,0.032l-3.293,3.301V2.49
			c0-0.264-0.214-0.478-0.478-0.478H9.469c-0.264,0-0.478,0.214-0.478,0.478v9.346L5.667,8.484C5.245,8.075,4.718,7.981,4.297,8.39
			c-0.422,0.409-0.39,0.978,0.031,1.387l4.909,4.951c0.422,0.409,1.011,0.378,1.432-0.031l5.003-4.889
			C16.094,9.399,16.125,8.83,15.703,8.421z"/>
	</g>
</g>
<path fill-rule="evenodd" clip-rule="evenodd" d="M4,15.988h12c0.552,0,1,0.448,1,1c0,0.552-0.448,1-1,1H4c-0.552,0-1-0.448-1-1
	C3,16.436,3.448,15.988,4,15.988z"/>
</svg>