<?xml version="1.0" encoding="iso-8859-1"?>
<!-- Generator: Adobe Illustrator 17.0.0, SVG Export Plug-In . SVG Version: 6.00 Build 0)  -->
<!DOCTYPE svg PUBLIC "-//W3C//DTD SVG 1.1//EN" "http://www.w3.org/Graphics/SVG/1.1/DTD/svg11.dtd">
<svg version="1.1" id="Layer_1" xmlns="http://www.w3.org/2000/svg" xmlns:xlink="http://www.w3.org/1999/xlink" x="0px" y="0px"
	 width="20px" height="20px" viewBox="0 0 20 20" style="enable-background:new 0 0 20 20;" xml:space="preserve">
<g>
	<g>
		<path d="M16.936,6.525h-2.121L17.13,4.21c0.37-0.37,0.37-0.97,0-1.34c-0.37-0.37-0.97-0.37-1.34,0
			l-2.315,2.315V3.063c0-0.269-0.218-0.487-0.487-0.487h-1c-0.269,0-0.487,0.218-0.487,0.487v4.949c0,0.269,0.218,0.487,0.487,0.487
			h4.949c0.269,0,0.487-0.218,0.487-0.487v-1C17.424,6.743,17.205,6.525,16.936,6.525z M7.013,12.5H2.563
			c-0.545,0-0.987,0.442-0.987,0.987c0,0.545,0.442,0.987,0.987,0.987h1.622L1.87,16.789c-0.37,0.37-0.37,0.97,0,1.34
			c0.37,0.37,0.97,0.37,1.34,0l2.315-2.315v2.121c0,0.269,0.218,0.487,0.487,0.487h1c0.269,0,0.487-0.218,0.487-0.487v-4.949
			C7.5,12.718,7.282,12.5,7.013,12.5z M7.013,2.576h-1c-0.269,0-0.487,0.218-0.487,0.487v2.121L3.21,2.87
			c-0.37-0.37-0.97-0.37-1.34,0c-0.37,0.37-0.37,0.97,0,1.34l2.315,2.315H2.063c-0.269,0-0.487,0.218-0.487,0.487v1
			c0,0.269,0.218,0.487,0.487,0.487h4.949C7.282,8.5,7.5,8.282,7.5,8.013V3.063C7.5,2.794,7.282,2.576,7.013,2.576z M16.936,12.5
			h-4.949c-0.134,0-0.256,0.055-0.344,0.143c-0.088,0.088-0.143,0.21-0.143,0.344v4.949c0,0.269,0.218,0.487,0.487,0.487h1
			c0.269,0,0.487-0.218,0.487-0.487v-2.121l2.315,2.315c0.37,0.37,0.97,0.37,1.34,0c0.37-0.37,0.37-0.97,0-1.34l-2.315-2.315h2.121
			c0.269,0,0.487-0.218,0.487-0.487v-1C17.424,12.718,17.205,12.5,16.936,12.5z"/>
	</g>
</g>
</svg>
