<?xml version="1.0" encoding="iso-8859-1"?>
<!-- Generator: Adobe Illustrator 17.0.0, SVG Export Plug-In . SVG Version: 6.00 Build 0)  -->
<!DOCTYPE svg PUBLIC "-//W3C//DTD SVG 1.1//EN" "http://www.w3.org/Graphics/SVG/1.1/DTD/svg11.dtd">
<svg version="1.1" id="Layer_1" xmlns="http://www.w3.org/2000/svg" xmlns:xlink="http://www.w3.org/1999/xlink" x="0px" y="0px"
	 width="20px" height="20px" viewBox="0 0 20 20" style="enable-background:new 0 0 20 20;" xml:space="preserve">
<path d="M12.951,2.358h4c0.552,0,1,0.448,1,1s-0.448,1-1,1h-4c-0.552,0-1-0.448-1-1
	S12.399,2.358,12.951,2.358z"/>
<path d="M16.951,2.358c0.552,0,1,0.448,1,1v4c0,0.552-0.448,1-1,1s-1-0.448-1-1v-4
	C15.951,2.805,16.399,2.358,16.951,2.358z"/>
<path d="M16.667,3.642c0.375,0.375,0.375,0.983,0,1.358l-4.073,4.073c-0.375,0.375-0.983,0.375-1.358,0
	c-0.375-0.375-0.375-0.983,0-1.358l4.073-4.073C15.684,3.267,16.292,3.267,16.667,3.642z"/>
<path d="M2.951,16.358h4c0.552,0,1,0.448,1,1s-0.448,1-1,1h-4c-0.552,0-1-0.448-1-1
	S2.399,16.358,2.951,16.358z"/>
<path d="M2.951,12.358c0.552,0,1,0.448,1,1v4c0,0.552-0.448,1-1,1s-1-0.448-1-1v-4
	C1.951,12.805,2.399,12.358,2.951,12.358z"/>
<path d="M3.236,17.073c-0.375-0.375-0.375-0.983,0-1.358l4.073-4.073c0.375-0.375,0.983-0.375,1.358,0
	c0.375,0.375,0.375,0.983,0,1.358l-4.073,4.073C4.219,17.448,3.611,17.448,3.236,17.073z"/>
<path d="M2.951,2.358h4c0.552,0,1,0.448,1,1s-0.448,1-1,1h-4c-0.552,0-1-0.448-1-1S2.399,2.358,2.951,2.358z"
	/>
<path d="M2.951,2.358c0.552,0,1,0.448,1,1v4c0,0.552-0.448,1-1,1s-1-0.448-1-1v-4
	C1.951,2.805,2.399,2.358,2.951,2.358z"/>
<path d="M3.236,3.642C2.861,4.017,2.861,4.625,3.236,5l4.073,4.073c0.375,0.375,0.983,0.375,1.358,0
	c0.375-0.375,0.375-0.983,0-1.358L4.594,3.642C4.219,3.267,3.611,3.267,3.236,3.642z"/>
<path d="M12.951,16.358h4c0.552,0,1,0.448,1,1s-0.448,1-1,1h-4c-0.552,0-1-0.448-1-1
	S12.399,16.358,12.951,16.358z"/>
<path d="M16.951,12.358c0.552,0,1,0.448,1,1v4c0,0.552-0.448,1-1,1s-1-0.448-1-1v-4
	C15.951,12.805,16.399,12.358,16.951,12.358z"/>
<path d="M16.667,17.073c0.375-0.375,0.375-0.983,0-1.358l-4.073-4.073c-0.375-0.375-0.983-0.375-1.358,0
	c-0.375,0.375-0.375,0.983,0,1.358l4.073,4.073C15.684,17.448,16.292,17.448,16.667,17.073z"/>
</svg>
