<?xml version="1.0" encoding="iso-8859-1"?>
<!-- Generator: Adobe Illustrator 21.1.0, SVG Export Plug-In . SVG Version: 6.00 Build 0)  -->
<svg version="1.1" id="&#x56FE;&#x5C42;_1" xmlns="http://www.w3.org/2000/svg" xmlns:xlink="http://www.w3.org/1999/xlink" x="0px"
	 y="0px" viewBox="0 0 20 20" style="enable-background:new 0 0 20 20;" xml:space="preserve">
<path style="fill:#0067ED;" d="M16.339,13.687c-1.096-0.769-3.072-1.574-4.242-2.325c-0.441-0.309-0.58-1.758-0.58-1.758
	s0.435-0.091,0.998-0.98c0.344-0.516,0.76-2.351,0.374-2.627c0.261-1.044-0.165-2.232-0.979-3.079
	c-1.871-1.543-4.034-0.919-4.539-0.336C6.902,2.747,6.341,3.531,6.268,3.8C5.972,4.333,5.833,4.887,5.934,6.016
	c-0.066,1.367,0.093,1.937,0.409,2.56c0.406,0.882,0.957,1.09,0.957,1.09s-0.04,1.253-0.379,1.704
	c-1.108,0.751-3.365,1.629-4.294,2.236C2.103,13.948,2,14.339,2,15.645c0.008,0.511,0.593,1.239,0.608,1.337
	c1.721,0.001,3.902,0.006,6.285,0.008c-0.695-2.253-1.093-5.144-1.093-5.144l1.818,0.446l1.818-0.446c0,0-0.398,2.891-1.093,5.144
	c2.593-0.001,4.155-0.007,6.007-0.009c0.214-0.038,0.65-0.856,0.65-1.336C17,14.39,16.93,14.101,16.339,13.687z"/>
</svg>
