<?xml version="1.0" encoding="iso-8859-1"?>
<!-- Generator: Adobe Illustrator 21.1.0, SVG Export Plug-In . SVG Version: 6.00 Build 0)  -->
<svg version="1.1" id="&#x56FE;&#x5C42;_1" xmlns="http://www.w3.org/2000/svg" xmlns:xlink="http://www.w3.org/1999/xlink" x="0px"
	 y="0px" viewBox="0 0 20 20" style="enable-background:new 0 0 20 20;" xml:space="preserve">
<g>
	<path style="fill:#ed7850;" d="M9.478,11.211c1.826,0,3.537-2.135,3.537-4.615c0-3.266-1.711-4.365-3.537-4.365
		c-1.827,0-3.537,1.212-3.537,4.365C5.941,9.076,7.652,11.211,9.478,11.211z"/>
	<path style="fill:#ed7850;" d="M14.519,12.067c-0.213-0.053-1.733-0.392-2.719,0.561c-0.46,0.975-1.372,1.478-2.347,1.478
		c-1.071,0-1.947-0.639-2.291-1.803c-1.038-0.586-2.334-0.225-2.334-0.225l-0.02-0.129C3.363,12.797,2,14.225,2,15.563
		c0,0.898,0.433,1.38,1.087,1.639h13.176c0.503-0.259,0.771-0.74,0.771-1.64C17.034,14.226,15.848,12.903,14.519,12.067z"/>
</g>
</svg>
