<?xml version="1.0" encoding="iso-8859-1"?>
<!-- Generator: Adobe Illustrator 21.1.0, SVG Export Plug-In . SVG Version: 6.00 Build 0)  -->
<svg version="1.1" id="Layer_1" xmlns="http://www.w3.org/2000/svg" xmlns:xlink="http://www.w3.org/1999/xlink" x="0px" y="0px"
	 viewBox="0 0 20 20" style="enable-background:new 0 0 20 20;" xml:space="preserve">
<g>
	<path d="M14,11c-0.212,0-0.422,0.004-0.629,0.013c0.541,0.522,0.97,1.184,1.256,1.994
		C16.375,13.042,18,13.305,18,15.076c0,0.456,0,0.744,0,0.924h-3c0,1.345,0,1.808,0,1.946h5c0-0.16,0-0.75,0-2.648
		C20,11.883,17.223,11,14,11z"/>
	<path d="M13,3.965c1.104,0,2,1.031,2,2.535s-0.896,1.722-2,1.722c-0.255,0-0.497-0.014-0.721-0.051
		c-0.191,0.623-0.48,1.121-0.856,1.504C11.907,9.883,12.439,10,13,10c2.209,0,4-1.791,4-4s-1.791-4-4-4
		c-0.662,0-1.276,0.176-1.826,0.46c0.473,0.488,0.803,1.071,1.018,1.708C12.439,4.038,12.712,3.965,13,3.965z"/>
	<path d="M7,10c2.209,0,4-1.791,4-4S9.209,2,7,2S3,3.791,3,6S4.791,10,7,10z M7,3.781
		c1.104,0,2,0.993,2,2.219S8.104,8.219,7,8.219S5,7.226,5,6S5.896,3.781,7,3.781z"/>
	<path d="M7,11c-3.223,0-7,0.884-7,4.297c0,0.604,0,2.648,0,2.648h14c0-0.16,0-0.75,0-2.648
		C14,11.883,10.223,11,7,11z M12,16H2c0,0,0-0.573,0-0.924C2,13.094,5.035,13,7,13s5,0.094,5,2.076C12,15.532,12,15.82,12,16z"/>
</g>
</svg>
