<?xml version="1.0" encoding="UTF-8"?>
<svg width="20px" height="20px" viewBox="0 0 20 20" version="1.1" xmlns="http://www.w3.org/2000/svg" xmlns:xlink="http://www.w3.org/1999/xlink">
    <!-- Generator: Sketch 50.2 (55047) - http://www.bohemiancoding.com/sketch -->
    <title>ic_continue</title>
    <desc>Created with Sketch.</desc>
    <defs></defs>
    <g id="ic_continue" stroke="none" stroke-width="1" fill-rule="evenodd">
        <path d="M10,20 C4.4771525,20 6.76353751e-16,15.5228475 0,10 C-6.76353751e-16,4.4771525 4.4771525,1.01453063e-15 10,0 C15.5228475,-1.01453063e-15 20,4.4771525 20,10 C20,15.5228475 15.5228475,20 10,20 Z M10,2 C5.581722,2 2,5.581722 2,10 C2,14.418278 5.581722,18 10,18 C14.418278,18 18,14.418278 18,10 C18,7.87826808 17.1571453,5.84343678 15.6568542,4.34314575 C14.1565632,2.84285472 12.1217319,2 10,2 Z M13.0495395,10.0752717 L8,7 L8,13.1505434 L13.0495395,10.0752717 Z M14.0714374,11.6319283 L9.02189796,14.7072 C8.09688738,15.2705502 6.87834987,14.9965388 6.30021826,14.0951786 C6.10402732,13.7892989 6,13.4358508 6,13.0751429 L6,6.9245995 C6,5.86167255 6.88428153,5 7.97509808,5 C8.3452704,5 8.70799246,5.10136759 9.02189796,5.29254239 L14.0714374,8.36781408 C14.996448,8.93116424 15.277649,10.1185466 14.6995174,11.0199069 C14.5405601,11.2677359 14.3257691,11.4770352 14.0714374,11.6319283 Z" id="Combined-Shape" fill-rule="nonzero"></path>
    </g>
</svg>