<?xml version="1.0" encoding="UTF-8"?>
<svg width="20px" height="20px" viewBox="0 0 20 20" version="1.1" xmlns="http://www.w3.org/2000/svg" xmlns:xlink="http://www.w3.org/1999/xlink">
    <!-- Generator: Sketch 50.2 (55047) - http://www.bohemiancoding.com/sketch -->
    <title>ic_cancel</title>
    <desc>Created with Sketch.</desc>
    <defs></defs>
    <g id="ic_cancel" stroke="none" stroke-width="1" fill-rule="evenodd">
        <path d="M10,20 C4.4771525,20 6.76353751e-16,15.5228475 0,10 C-6.76353751e-16,4.4771525 4.4771525,1.01453063e-15 10,0 C15.5228475,-1.01453063e-15 20,4.4771525 20,10 C20,15.5228475 15.5228475,20 10,20 Z M10,8.58578644 L7.87867966,6.46446609 L6.46446609,7.87867966 L8.58578644,10 L6.46446609,12.1213203 L7.87867966,13.5355339 L10,11.4142136 L12.1213203,13.5355339 L13.5355339,12.1213203 L11.4142136,10 L13.5355339,7.87867966 L12.1213203,6.46446609 L10,8.58578644 Z M10,2 C12.1217319,2 14.1565632,2.84285472 15.6568542,4.34314575 C17.1571453,5.84343678 18,7.87826808 18,10 C18,14.418278 14.418278,18 10,18 C5.581722,18 2,14.418278 2,10 C2,5.581722 5.581722,2 10,2 Z" id="Rectangle_1_copy"></path>
    </g>
</svg>