<?xml version="1.0" encoding="UTF-8"?>
<svg width="20px" height="20px" viewBox="0 0 20 20" version="1.1" xmlns="http://www.w3.org/2000/svg" xmlns:xlink="http://www.w3.org/1999/xlink">
    <!-- Generator: Sketch 50.2 (55047) - http://www.bohemiancoding.com/sketch -->
    <title>ic_edit</title>
    <desc>Created with Sketch.</desc>
    <defs></defs>
    <g id="ic_edit" stroke="none" stroke-width="1" fill-rule="evenodd">
        <path d="M18.5,18 L1.5,18 C1.224,18 1,18.224 1,18.5 L1,19.5 C1,19.776 1.224,20 1.5,20 L18.5,20 C18.776,20 19,19.776 19,19.5 L19,18.5 C19,18.224 18.776,18 18.5,18 Z M17.985,5.293 L13.707,1.015 L2.011,12.71 L2.011,16.988 L6.29,16.988 L17.985,5.293 Z M3.994,15.005 L3.994,13.575 L13.577,3.992 L15.007,5.422 L5.424,15.005 L3.994,15.005 Z" id="Combined-Shape" fill-rule="nonzero"></path>
    </g>
</svg>