<?xml version="1.0" encoding="UTF-8"?>
<svg width="20px" height="20px" viewBox="0 0 20 20" version="1.1" xmlns="http://www.w3.org/2000/svg" xmlns:xlink="http://www.w3.org/1999/xlink">
    <!-- Generator: Sketch 50.2 (55047) - http://www.bohemiancoding.com/sketch -->
    <title>ic_link</title>
    <desc>Created with Sketch.</desc>
    <defs></defs>
    <g id="ic_link" stroke="none" stroke-width="1" fill-rule="evenodd">
        <path d="M18.02075,2.46475 C16.06775,0.51175 12.90275,0.51175 10.94975,2.46475 L8.12175,5.29275 C6.16875,7.24575 6.16875,10.41175 8.12175,12.36375 C8.36375,12.60575 8.62475,12.81775 8.89975,12.99975 L10.24275,11.65675 L10.37275,11.52675 C10.07175,11.38375 9.78475,11.19875 9.53575,10.94975 C8.36375,9.77875 8.36375,7.87875 9.53575,6.70675 L12.36375,3.87875 C13.53575,2.70675 15.43475,2.70675 16.60675,3.87875 C17.77875,5.05075 17.77875,6.94975 16.60675,8.12175 L14.91975,9.80875 L16.06075,11.49575 L18.02075,9.53575 C19.97375,7.58275 19.97375,4.41775 18.02075,2.46475 Z M11.58575,7.48575 L10.11275,8.95875 C10.41375,9.10175 10.70075,9.28675 10.94975,9.53575 C12.12175,10.70775 12.12175,12.60675 10.94975,13.77875 L8.12175,16.60675 C6.94975,17.77875 5.05075,17.77875 3.87875,16.60675 C2.70675,15.43475 2.70675,13.53575 3.87875,12.36375 L5.56575,10.67675 L4.42475,8.98975 L2.46475,10.94975 C0.51175,12.90275 0.51175,16.06875 2.46475,18.02075 C4.41775,19.97375 7.58275,19.97375 9.53575,18.02075 L12.36375,15.19275 C14.31675,13.23975 14.31675,10.07475 12.36375,8.12175 C12.12175,7.87975 11.86075,7.66775 11.58575,7.48575 Z" id="Shape"></path>
    </g>
</svg>