<?xml version="1.0" encoding="UTF-8"?>
<svg width="20px" height="20px" viewBox="0 0 20 20" version="1.1" xmlns="http://www.w3.org/2000/svg" xmlns:xlink="http://www.w3.org/1999/xlink">
    <!-- Generator: Sketch 50.2 (55047) - http://www.bohemiancoding.com/sketch -->
    <title>ic_resend</title>
    <desc>Created with Sketch.</desc>
    <defs></defs>
    <g id="ic_resend" stroke="none" stroke-width="1" fill-rule="evenodd">
        <path d="M10,2 C6.986,2 4.364,3.668 3,6.13 L3,4.5 C3,4.224 2.776,4 2.5,4 L1.5,4 C1.224,4 1,4.224 1,4.5 L1,8.5 L1,9.5 C1,9.776 1.224,10 1.5,10 L2,10 L2.5,10 L4,10 L6.5,10 C6.776,10 7,9.776 7,9.5 L7,8.5 C7,8.224 6.776,8 6.5,8 L4.349,8 C5.173,5.671 7.389,4 10,4 C13.313,4 16,6.686 16,10 C16,13.313 13.313,16 10,16 C7.391,16 5.194,14.325 4.367,12 L2.262,12 C3.151,15.449 6.273,18 10,18 C14.418,18 18,14.418 18,10 C18,5.582 14.418,2 10,2 Z" id="Shape" fill-rule="nonzero"></path>
    </g>
</svg>