<?xml version="1.0" encoding="UTF-8"?>
<svg width="20px" height="20px" viewBox="0 0 20 20" version="1.1" xmlns="http://www.w3.org/2000/svg" xmlns:xlink="http://www.w3.org/1999/xlink">
    <!-- Generator: Sketch 50.2 (55047) - http://www.bohemiancoding.com/sketch -->
    <title>ic_短信群发</title>
    <desc>Created with Sketch.</desc>
    <defs></defs>
    <g id="ic_短信群发" stroke="none" stroke-width="1" fill-rule="evenodd">
        <path d="M15,9 L15,7 L19,10.5 L15,14 L15,12 L10,12 L10,9 L15,9 Z M4,4 L10,4 L10,6 L4,6 L4,4 Z M4,8 L8,8 L8,10 L4,10 L4,8 Z M12,13 L14,13 L14,18 C14,19.1045695 13.0299503,20 11.8333333,20 L3.16666667,20 C1.97004971,20 1,19.1045695 1,18 L1,2 C1,0.8954305 1.97004971,-6.76353751e-17 3.16666667,0 L11.8333333,0 C13.0299503,6.76353751e-17 14,0.8954305 14,2 L14,8 L12,8 L12,2 L3,2 L3,16 L12,16 L12,13 Z M7,19 C7.55228475,19 8,18.5522847 8,18 C8,17.4477153 7.55228475,17 7,17 C6.44771525,17 6,17.4477153 6,18 C6,18.5522847 6.44771525,19 7,19 Z" id="Combined-Shape" fill-rule="nonzero"></path>
    </g>
</svg>