<?xml version="1.0" encoding="utf-8"?>
<!-- Generator: Adobe Illustrator 21.1.0, SVG Export Plug-In . SVG Version: 6.00 Build 0)  -->
<svg version="1.1" id="图层_1" xmlns="http://www.w3.org/2000/svg" xmlns:xlink="http://www.w3.org/1999/xlink" x="0px" y="0px"
	 viewBox="0 0 14 14" style="enable-background:new 0 0 14 14;" xml:space="preserve">
<style type="text/css">
	.st0{fill:#B2BFD6;}
	.st1{fill:#FFFFFF;}
	.st2{filter:url(#Adobe_OpacityMaskFilter);}
	.st3{mask:url(#mask-2);fill:#FFFFFF;}
</style>
<g id="外呼任务四期---视觉稿">
	<g id="工作台-外呼任务-开启时段排序-copy-2" transform="translate(-378.000000, -331.000000)">
		<g id="icon-号码疑似无效" transform="translate(378.000000, 331.000000)">
			<path id="Rectangle" class="st0" d="M2,0h10c1.1,0,2,0.9,2,2v10c0,1.1-0.9,2-2,2H2c-1.1,0-2-0.9-2-2V2C0,0.9,0.9,0,2,0z"/>
			<g id="Group-9" transform="translate(4.000000, 3.000000)">
				<g id="Group-8">
					<path id="Fill-1" class="st1" d="M3.5,5.4v0.3H2.1V5.3C2,4.6,2.4,4,3,3.6c0.6-0.4,0.9-0.8,0.8-1.3C3.8,1.9,3.5,1.6,3,1.6
						C2.4,1.6,2,2,1.8,2.8L0.2,2.5c0.3-1.6,1.3-2.4,3.1-2.4c1.5,0.1,2.3,0.8,2.4,2c0,0.8-0.4,1.5-1.3,2C3.7,4.6,3.4,5,3.5,5.4"/>
					<g id="Clip-6">
					</g>
					<defs>
						<filter id="Adobe_OpacityMaskFilter" filterUnits="userSpaceOnUse" x="1.9" y="6.8" width="1.7" height="1.6">
							<feColorMatrix  type="matrix" values="1 0 0 0 0  0 1 0 0 0  0 0 1 0 0  0 0 0 1 0"/>
						</filter>
					</defs>
					<mask maskUnits="userSpaceOnUse" x="1.9" y="6.8" width="1.7" height="1.6" id="mask-2">
						<g class="st2">
							<polygon id="path-1" class="st1" points="0,8.6 5.8,8.6 5.8,0 0,0 							"/>
						</g>
					</mask>
					<polygon id="Fill-5" class="st3" points="1.9,8.4 3.6,8.4 3.6,6.8 1.9,6.8 					"/>
				</g>
			</g>
		</g>
	</g>
</g>
</svg>
