<?xml version="1.0" encoding="utf-8"?>
<!-- Generator: Adobe Illustrator 21.1.0, SVG Export Plug-In . SVG Version: 6.00 Build 0)  -->
<svg version="1.1" xmlns="http://www.w3.org/2000/svg" xmlns:xlink="http://www.w3.org/1999/xlink" x="0px" y="0px"
	 viewBox="0 0 40 40" style="enable-background:new 0 0 40 40;" xml:space="preserve">
<path class="st0" d="M26.4,2H7C5.3,2,4,3.3,4,5v30c0,1.6,1.3,3,3,3h26c1.7,0,3-1.3,3-3V11.5L26.4,2z M26.5,4.9l6.1,6.1h-6.1V4.9z
	 M33,36H7c-0.6,0-1-0.4-1-1V5c0-0.5,0.4-1,1-1h17.5v9H34v22C34,35.6,33.6,36,33,36z"/>
</svg>
