<?xml version="1.0" encoding="utf-8"?>
<!-- Generator: Adobe Illustrator 21.1.0, SVG Export Plug-In . SVG Version: 6.00 Build 0)  -->
<svg version="1.1" xmlns="http://www.w3.org/2000/svg" xmlns:xlink="http://www.w3.org/1999/xlink" x="0px" y="0px"
	 viewBox="0 0 40 40" style="enable-background:new 0 0 40 40;" xml:space="preserve">
<path class="st0" d="M36,26h-3v-7H21v-5h3c1.1,0,2-0.9,2-2V6c0-1.1-0.9-2-2-2h-8c-1.1,0-2,0.9-2,2v6c0,1.1,0.9,2,2,2h3v5H7v7H4
	c-1.1,0-2,0.9-2,2v6c0,1.1,0.9,2,2,2h8c1.1,0,2-0.9,2-2v-6c0-1.1-0.9-2-2-2H9v-5h22v5h-3c-1.1,0-2,0.9-2,2v6c0,1.1,0.9,2,2,2h8
	c1.1,0,2-0.9,2-2v-6C38,26.9,37.1,26,36,26z M16,6h8v6h-8V6z M12,28v6H4v-6H12z M36,34h-8v-6h8V34z"/>
</svg>
