<?xml version="1.0" encoding="utf-8"?>
<!-- Generator: Adobe Illustrator 21.1.0, SVG Export Plug-In . SVG Version: 6.00 Build 0)  -->
<svg version="1.1" xmlns="http://www.w3.org/2000/svg" xmlns:xlink="http://www.w3.org/1999/xlink" x="0px" y="0px"
	 viewBox="0 0 20 20" style="enable-background:new 0 0 20 20;" xml:space="preserve">
<path class="st0" d="M18.5,9H5.2l4.4-4.5c0.6-0.6,0.6-1.5,0-2.1C9,1.8,8,1.9,7.4,2.4l-7,7.1C0.1,9.9,0,10.3,0,10.7
	c0,0.4,0.2,0.8,0.5,1.1l7,6.9c0.3,0.3,0.7,0.4,1,0.4c0.4,0,0.8-0.2,1.1-0.5c0.6-0.6,0.6-1.5,0-2.1L5,12h13.5c0.8,0,1.5-0.7,1.5-1.5
	S19.3,9,18.5,9z"/>
</svg>
