<?xml version="1.0" encoding="iso-8859-1"?>
<!-- Generator: Adobe Illustrator 21.1.0, SVG Export Plug-In . SVG Version: 6.00 Build 0)  -->
<svg version="1.1" id="Layer_1" xmlns="http://www.w3.org/2000/svg" xmlns:xlink="http://www.w3.org/1999/xlink" x="0px" y="0px"
	 viewBox="0 0 20 20" style="enable-background:new 0 0 20 20;" xml:space="preserve">
<g>
	<g>
		<path style="fill-rule:evenodd;clip-rule:evenodd;" d="M17.809,2.253c-1.953-1.953-5.118-1.953-7.071,0L7.91,5.081
			c-1.953,1.953-1.953,5.119,0,7.071c0.242,0.242,0.503,0.454,0.778,0.636l1.343-1.343l0.13-0.13
			c-0.301-0.143-0.588-0.328-0.837-0.577c-1.172-1.171-1.172-3.071,0-4.243l2.828-2.828c1.172-1.172,3.071-1.172,4.243,0
			c1.172,1.172,1.172,3.071,0,4.243l-1.687,1.687l1.141,1.687l1.96-1.96C19.762,7.371,19.762,4.206,17.809,2.253z M11.374,7.274
			L9.901,8.747c0.301,0.143,0.588,0.328,0.837,0.577c1.172,1.172,1.172,3.071,0,4.243L7.91,16.395c-1.172,1.172-3.071,1.172-4.243,0
			c-1.172-1.172-1.172-3.071,0-4.243l1.687-1.687L4.213,8.778l-1.96,1.96c-1.953,1.953-1.953,5.119,0,7.071
			c1.953,1.953,5.118,1.953,7.071,0l2.828-2.828c1.953-1.953,1.953-5.118,0-7.071C11.91,7.668,11.649,7.456,11.374,7.274z"/>
	</g>
</g>
</svg>
