<?xml version="1.0" encoding="UTF-8"?>
<svg width="50px" height="50px" viewBox="0 0 50 50" version="1.1" xmlns="http://www.w3.org/2000/svg" xmlns:xlink="http://www.w3.org/1999/xlink">
    <!-- Generator: Sketch 52.5 (67469) - http://www.bohemiancoding.com/sketch -->
    <title>名单计算-icon-客户价值</title>
    <desc>Created with Sketch.</desc>
    <defs>
        <polygon id="path-1" points="0.000294111806 0 24 0 24 22 0.000294111806 22"></polygon>
    </defs>
    <g id="外呼任务四期---视觉稿" stroke="none" stroke-width="1" fill="none" fill-rule="evenodd">
        <g id="外呼任务名单3" transform="translate(-306.000000, -467.000000)">
            <g id="名单计算-icon-客户价值" transform="translate(306.000000, 467.000000)">
                <circle id="Oval" fill="#E0ECFC" fill-rule="nonzero" cx="25" cy="25" r="25"></circle>
                <g id="Group-6" transform="translate(13.000000, 14.000000)">
                    <path d="M21.7069,16.293 L19.7069,14.293 C19.3159,13.902 18.6839,13.902 18.2929,14.293 L16.2929,16.293 C15.9019,16.684 15.9019,17.316 16.2929,17.707 C16.6839,18.098 17.3159,18.098 17.7069,17.707 L17.9999,17.414 L17.9999,22 C17.9999,22.553 18.4469,23 18.9999,23 C19.5529,23 19.9999,22.553 19.9999,22 L19.9999,17.414 L20.2929,17.707 C20.4879,17.902 20.7439,18 20.9999,18 C21.2559,18 21.5119,17.902 21.7069,17.707 C22.0979,17.316 22.0979,16.684 21.7069,16.293" id="Fill-1" fill="#0067ED"></path>
                    <g id="Group-5">
                        <mask id="mask-2" fill="white">
                            <use xlink:href="#path-1"></use>
                        </mask>
                        <g id="Clip-4"></g>
                        <path d="M16.9062,6 L15.9052,2 L18.4652,2 L21.1312,6 L16.9062,6 Z M9.1562,6 L10.1562,2 L13.8442,2 L14.8432,6 L9.1562,6 Z M12.0002,16.213 L9.2622,8 L14.7372,8 L12.0002,16.213 Z M3.0572,8 L7.1542,8 L10.1732,17.057 L3.0572,8 Z M5.5352,2 L8.0942,2 L7.0942,6 L2.8682,6 L5.5352,2 Z M23.8322,6.445 L19.8322,0.445 C19.6462,0.167 19.3342,0 19.0002,0 L5.0002,0 C4.6652,0 4.3532,0.167 4.1682,0.445 L0.1682,6.445 C-0.0718,6.805 -0.0528,7.278 0.2142,7.618 L11.2142,21.618 C11.4032,21.859 11.6932,22 12.0002,22 C12.3062,22 12.5962,21.859 12.7862,21.618 L14.0002,20.073 L14.0002,16.836 L13.8272,17.056 L16.8452,8 L20.9422,8 L17.8002,12 L20.3432,12 L23.7862,7.618 C24.0532,7.278 24.0722,6.805 23.8322,6.445 Z" id="Fill-3" fill="#0067ED" mask="url(#mask-2)"></path>
                    </g>
                </g>
            </g>
        </g>
    </g>
</svg>