<?xml version="1.0" encoding="iso-8859-1"?>
<svg version="1.1" xmlns="http://www.w3.org/2000/svg" xmlns:xlink="http://www.w3.org/1999/xlink" x="0px" y="0px"
	 viewBox="0 0 20 20" xml:space="preserve">
<g>
	<path style="fill-rule:evenodd;clip-rule:evenodd;" d="M17.521,3.021h-15c-0.276,0-0.5,0.224-0.5,0.5v1
		c0,0.276,0.224,0.5,0.5,0.5h15c0.276,0,0.5-0.224,0.5-0.5v-1C18.021,3.245,17.797,3.021,17.521,3.021z M17.521,7.021h-15
		c-0.276,0-0.5,0.224-0.5,0.5v1c0,0.276,0.224,0.5,0.5,0.5h15c0.276,0,0.5-0.224,0.5-0.5v-1
		C18.021,7.245,17.797,7.021,17.521,7.021z M17.521,11.021h-15c-0.276,0-0.5,0.224-0.5,0.5v1c0,0.276,0.224,0.5,0.5,0.5h15
		c0.276,0,0.5-0.224,0.5-0.5v-1C18.021,11.245,17.797,11.021,17.521,11.021z M17.521,15.021h-15c-0.276,0-0.5,0.224-0.5,0.5v1
		c0,0.276,0.224,0.5,0.5,0.5h15c0.276,0,0.5-0.224,0.5-0.5v-1C18.021,15.245,17.797,15.021,17.521,15.021z"/>
</g>
</svg>
