<?xml version="1.0" encoding="utf-8"?>
<svg version="1.1" xmlns="http://www.w3.org/2000/svg" xmlns:xlink="http://www.w3.org/1999/xlink" x="0px" y="0px"
	 viewBox="0 0 20 20" enable-background="new 0 0 20 20" xml:space="preserve">
<path d="M14.983,15.007c-1.362,0-3.642,0-3.642,0l1.358,1.357c0.375,0.375,0.375,0.983,0,1.358s-0.983,0.375-1.358,0
	c0,0-1.857-1.537-3.357-2.715l0-1.5c0-0.276,0.224-0.5,0.5-0.5h5.502c1.656-0.001,2.998-1.343,2.998-3c0-1.657-1.343-3-3-3v-2
	c2.761,0,5,2.239,5,5C18.983,12.938,16.788,15.007,14.983,15.007z M11.483,7.007h-5.5v0c-1.657,0-3,1.343-3,3c0,1.657,1.343,3,3,3v2
	c-2.761,0-5-2.239-5-5c0-2.505,1.878-5,4-5c-1.177,0,3.643,0,3.643,0L7.267,3.649c-0.375-0.375-0.375-0.983,0-1.357
	c0.375-0.375,0.983-0.375,1.358,0c0,0,2.233,1.778,3.358,2.715c0,0.188,0,1.5,0,1.5C11.983,6.783,11.759,7.007,11.483,7.007z"/>
</svg>
