<?xml version="1.0" encoding="iso-8859-1"?>
<!-- Generator: Adobe Illustrator 21.1.0, SVG Export Plug-In . SVG Version: 6.00 Build 0)  -->
<svg version="1.1" id="Layer_1" xmlns="http://www.w3.org/2000/svg" xmlns:xlink="http://www.w3.org/1999/xlink" x="0px" y="0px"
	 viewBox="0 0 20 20" style="enable-background:new 0 0 20 20;" xml:space="preserve">
<path d="M17.5,9H11V2.5C11,2.224,10.776,2,10.5,2h-1C9.224,2,9,2.224,9,2.5V9H2.5C2.224,9,2,9.224,2,9.5v1
	C2,10.776,2.224,11,2.5,11H9v6.5C9,17.776,9.224,18,9.5,18h1c0.276,0,0.5-0.224,0.5-0.5V11h6.5c0.276,0,0.5-0.224,0.5-0.5v-1
	C18,9.224,17.776,9,17.5,9z"/>
</svg>
