<?xml version="1.0" encoding="iso-8859-1"?>
<!-- Generator: Adobe Illustrator 17.0.0, SVG Export Plug-In . SVG Version: 6.00 Build 0)  -->
<!DOCTYPE svg PUBLIC "-//W3C//DTD SVG 1.1//EN" "http://www.w3.org/Graphics/SVG/1.1/DTD/svg11.dtd">
<svg version="1.1" id="Layer_1" xmlns="http://www.w3.org/2000/svg" xmlns:xlink="http://www.w3.org/1999/xlink" xml:space="preserve">
<path style="fill-rule:evenodd;clip-rule:evenodd;" d="M18.196,13.677l-3.512-0.81l-1.272,0.281l-1.923,2.225
	c0,0-4.842-2.54-6.325-6.567C6.05,8,7.684,6.502,7.684,6.502l0.138-1.121L6.989,2.016L5.956,1H2.219c0,0-1.099-0.066-1.203,0.704
	c0,0,0.03,7.524,5.341,12.391c5.31,4.868,9.149,4.764,11.839,4.904C18.609,18.859,19,18.44,19,18.44v-4L18.196,13.677z M3.296,3
	h1.75c0,0,0.281,1.781,0.688,2.563C5.171,6.031,4.265,6.844,4.265,6.844S3.578,6,3.296,3z M17,17.078c0,0-1.86,0.203-3.704-0.922
	l1.094-1.469l2.594,0.672L17,17.078z"/>
</svg>
