<?xml version="1.0" encoding="utf-8"?>
<!-- Generator: Adobe Illustrator 16.0.0, SVG Export Plug-In . SVG Version: 6.00 Build 0)  -->
<!DOCTYPE svg PUBLIC "-//W3C//DTD SVG 1.1//EN" "http://www.w3.org/Graphics/SVG/1.1/DTD/svg11.dtd">
<svg version="1.1" id="Layer_1" xmlns="http://www.w3.org/2000/svg" xmlns:xlink="http://www.w3.org/1999/xlink" x="0px" y="0px"
     width="26px" height="26px" viewBox="0 0 26 26" enable-background="new 0 0 26 26" xml:space="preserve">
<g>
    <path d="M19.519,14.977c-0.148-0.455-0.352-0.983-0.557-1.493l-0.75-1.778c0.001-0.021,0.01-0.371,0.01-0.552
        c0-3.042-1.511-6.098-5.225-6.098c-3.716,0-5.227,3.056-5.227,6.098c0,0.181,0.009,0.531,0.01,0.552l-0.75,1.778
        c-0.206,0.509-0.408,1.038-0.557,1.493c-0.708,2.166-0.479,3.062-0.304,3.084c0.375,0.043,1.46-1.631,1.46-1.631
        c0,0.969,0.525,2.367,1.662,3.281c-0.425,0.125-0.946,0.316-1.281,0.551c-0.301,0.211-0.264,0.426-0.209,0.514
        c0.238,0.381,4.085,0.244,5.196,0.125c1.111,0.119,4.957,0.256,5.195-0.125c0.054-0.088,0.092-0.303-0.21-0.514
        c-0.335-0.234-0.856-0.426-1.281-0.551c1.137-0.914,1.662-2.312,1.662-3.281c0,0,1.085,1.674,1.46,1.631
        C19.998,18.039,20.228,17.143,19.519,14.977z"/>
</g>
</svg>
