<?xml version="1.0" encoding="iso-8859-1"?>
<!-- Generator: Adobe Illustrator 17.0.0, SVG Export Plug-In . SVG Version: 6.00 Build 0)  -->
<!DOCTYPE svg PUBLIC "-//W3C//DTD SVG 1.1//EN" "http://www.w3.org/Graphics/SVG/1.1/DTD/svg11.dtd">
<svg version="1.1" id="Layer_1" xmlns="http://www.w3.org/2000/svg" xmlns:xlink="http://www.w3.org/1999/xlink" x="0px" y="0px"
	 width="20px" height="20px" viewBox="0 0 20 20" style="enable-background:new 0 0 20 20;" xml:space="preserve">
<path d="M10,2.015c3.712,0,5.222,3.059,5.222,6.103c0,0.181-0.009,0.531-0.01,0.552l0.749,1.78
	c0.205,0.509,0.408,1.04,0.556,1.495c0.708,2.169,0.479,3.067,0.304,3.087c-0.005,0.001-0.01,0.001-0.015,0.001
	c-0.388,0-1.444-1.634-1.444-1.634c0,0.97-0.525,2.37-1.66,3.284c0.425,0.125,0.946,0.317,1.281,0.552
	c0.301,0.211,0.263,0.427,0.209,0.514C15.075,17.938,14.08,18,12.968,18c-1.141,0-2.405-0.065-2.967-0.125
	C9.438,17.935,8.174,18,7.033,18c-1.112,0-2.107-0.062-2.224-0.251c-0.054-0.087-0.092-0.302,0.209-0.514
	c0.335-0.235,0.855-0.427,1.28-0.552c-1.136-0.915-1.661-2.314-1.661-3.285c0,0-1.057,1.634-1.444,1.634
	c-0.005,0-0.01,0-0.015-0.001c-0.175-0.02-0.404-0.918,0.304-3.087c0.149-0.455,0.351-0.985,0.557-1.495l0.749-1.78
	c-0.001-0.021-0.01-0.371-0.01-0.552C4.778,5.074,6.288,2.015,10,2.015 M10,0.015c-4.32,0-7.222,3.256-7.222,8.103
	c0,0.048,0.001,0.107,0.001,0.168L2.195,9.675c-0.267,0.661-0.47,1.206-0.614,1.649c-0.714,2.189-0.767,3.78-0.158,4.73
	c0.33,0.514,0.847,0.857,1.431,0.952c-0.169,0.639-0.054,1.3,0.256,1.799C3.802,19.917,5.112,20,7.033,20
	c1.109,0,2.289-0.057,2.967-0.116C10.679,19.943,11.859,20,12.968,20c1.921,0,3.231-0.083,3.922-1.194
	c0.31-0.501,0.426-1.162,0.256-1.8c0.583-0.095,1.101-0.438,1.43-0.952c0.609-0.95,0.556-2.541-0.158-4.729
	c-0.146-0.447-0.343-0.977-0.602-1.621L17.22,8.287c0.001-0.062,0.001-0.12,0.001-0.168C17.222,3.272,14.32,0.015,10,0.015L10,0.015
	z"/>
</svg>
