<?xml version="1.0" encoding="utf-8"?>
<!-- Generator: Adobe Illustrator 21.1.0, SVG Export Plug-In . SVG Version: 6.00 Build 0)  -->
<svg version="1.1" id="Layer_1" xmlns="http://www.w3.org/2000/svg" xmlns:xlink="http://www.w3.org/1999/xlink" x="0px" y="0px"
	 viewBox="0 0 20 20" style="enable-background:new 0 0 20 20;" xml:space="preserve">

<path class="st0" d="M2,10c0,4.4,3.6,8,8,8c3.7,0,6.8-2.6,7.7-6h-2.1c-0.8,2.3-3,4-5.6,4c-3.3,0-6-2.7-6-6c0-3.3,2.7-6,6-6
	c2.6,0,4.8,1.7,5.7,4h-2.2C13.2,8,13,8.2,13,8.5v1c0,0.3,0.2,0.5,0.5,0.5H16h1.5H18h0.5c0.3,0,0.5-0.2,0.5-0.5v-1v-4
	C19,4.2,18.8,4,18.5,4h-1C17.2,4,17,4.2,17,4.5v1.6C15.6,3.7,13,2,10,2C5.6,2,2,5.6,2,10z"/>
</svg>
