<?xml version="1.0" encoding="iso-8859-1"?>
<!-- Generator: Adobe Illustrator 21.1.0, SVG Export Plug-In . SVG Version: 6.00 Build 0)  -->
<svg version="1.1" id="&#x56FE;&#x5C42;_1" xmlns="http://www.w3.org/2000/svg" xmlns:xlink="http://www.w3.org/1999/xlink" x="0px"
	 y="0px" viewBox="0 0 20 20" style="enable-background:new 0 0 20 20;" xml:space="preserve">
<path d="M10.128,0C5.672,0,1.865,3.468,1.187,8v5c0,1.105,1.275,1.648,2,2l2,1c1.105,0,2-0.895,2-2v-4
	c0-1.104-0.895-2-2-2l-2,1V8c0.649-3.423,3.613-6,7-6c3.386,0,6.351,2.577,7,6v1l-2-1c-1.105,0-2,0.896-2,2v4c0,1.105,0.895,2,2,2
	l2-1v1c-0.456,0.604-2.185,2-3,2h-2c0-0.552-0.448-1-1-1h-1c-0.552,0-1,0.448-1,1v1c0,0.552,0.448,1,1,1h1h3c2.761,0,5-2.239,5-5
	c0-0.738,0-7,0-7C18.509,3.468,14.585,0,10.128,0z M5.187,10v4l-2-1v-2L5.187,10z M17.187,13l-2,1v-4l2,1V13z"/>
</svg>
