<?xml version="1.0" encoding="iso-8859-1"?>
<!-- Generator: Adobe Illustrator 16.0.0, SVG Export Plug-In . SVG Version: 6.00 Build 0)  -->
<!DOCTYPE svg PUBLIC "-//W3C//DTD SVG 1.1//EN" "http://www.w3.org/Graphics/SVG/1.1/DTD/svg11.dtd">
<svg version="1.1" id="Layer_1" xmlns="http://www.w3.org/2000/svg" xmlns:xlink="http://www.w3.org/1999/xlink" x="0px" y="0px"
	 width="20px" height="20px" viewBox="0 0 20 20" style="enable-background:new 0 0 20 20;" xml:space="preserve">
<g>
	<path style="fill-rule:evenodd;clip-rule:evenodd;" d="M18.5,9h-1.58c-0.17-1.185-0.634-2.271-1.32-3.187l1.117-1.117
		c0.196-0.195,0.196-0.512,0-0.707L16.01,3.283c-0.195-0.196-0.512-0.196-0.707,0l-1.117,1.117C13.271,3.714,12.185,3.25,11,3.08
		V1.5C11,1.224,10.776,1,10.5,1h-1C9.224,1,9,1.224,9,1.5v1.58c-1.185,0.17-2.271,0.634-3.187,1.32L4.697,3.283
		c-0.195-0.195-0.512-0.195-0.707,0L3.283,3.99c-0.195,0.195-0.195,0.512,0,0.707l1.117,1.117C3.714,6.729,3.25,7.815,3.08,9H1.5
		C1.224,9,1,9.224,1,9.5v1C1,10.776,1.224,11,1.5,11h1.58c0.17,1.185,0.634,2.271,1.32,3.187l-1.117,1.117
		c-0.196,0.195-0.196,0.512,0,0.707l0.707,0.707c0.195,0.196,0.512,0.196,0.707,0l1.117-1.117C6.729,16.286,7.815,16.75,9,16.92
		v1.58C9,18.776,9.224,19,9.5,19h1c0.276,0,0.5-0.224,0.5-0.5v-1.58c1.185-0.17,2.271-0.634,3.187-1.32l1.117,1.117
		c0.195,0.195,0.512,0.195,0.707,0l0.707-0.707c0.195-0.195,0.195-0.512,0-0.707l-1.117-1.117c0.686-0.916,1.15-2.002,1.32-3.187
		h1.58c0.276,0,0.5-0.224,0.5-0.5v-1C19,9.224,18.776,9,18.5,9z M10,15c-2.761,0-5-2.239-5-5s2.239-5,5-5s5,2.239,5,5
		S12.761,15,10,15z"/>
	<path style="fill-rule:evenodd;clip-rule:evenodd;" d="M10,7c-1.657,0-3,1.343-3,3s1.343,3,3,3s3-1.343,3-3
		S11.657,7,10,7z M10,11c-0.552,0-1-0.448-1-1s0.448-1,1-1s1,0.448,1,1S10.552,11,10,11z"/>
</g>
</svg>
