<?xml version="1.0" encoding="UTF-8"?>
<svg width="30px" height="30px" viewBox="0 0 30 30" version="1.1" xmlns="http://www.w3.org/2000/svg" xmlns:xlink="http://www.w3.org/1999/xlink">
    <!-- Generator: Sketch 49.1 (51147) - http://www.bohemiancoding.com/sketch -->
    <title>ic_start</title>
    <desc>Created with Sketch.</desc>
    <defs></defs>
    <g id="ic_start" stroke="none" stroke-width="1" fill="none" fill-rule="evenodd">
        <path d="M7.56619038,19 L3.5,19 C3.22385763,19 3,18.7761424 3,18.5 L3,17.5 C3,17.2238576 3.22385763,17 3.5,17 L6.43380962,17 L9.58177751,11.7533869 C9.72385159,11.5165967 10.0309817,11.4398142 10.2677718,11.5818883 C10.3412351,11.6259662 10.4021403,11.688181 10.4446455,11.7625653 L13.7976421,17.6303092 L17.4348232,7.62806127 C17.5291929,7.36854448 17.8160746,7.23466635 18.0755914,7.32903609 C18.1887799,7.37019552 18.2833078,7.4508281 18.3417985,7.55611133 L23.5884033,17 L26.5,17 C26.7761424,17 27,17.2238576 27,17.5 L27,18.5 C27,18.7761424 26.7761424,19 26.5,19 L22.4115967,19 L18.1905602,11.4021344 L14.5710757,21.3557169 C14.4767059,21.6152337 14.1898242,21.7491118 13.9303074,21.6547421 C13.8190666,21.6142909 13.725784,21.5356865 13.6670574,21.4329148 L9.97895206,14.9787305 L7.56619038,19 Z" id="Path-2" fill="#0067ED" fill-rule="nonzero"></path>
    </g>
</svg>