<?xml version="1.0" encoding="iso-8859-1"?>
<!-- Generator: Adobe Illustrator 21.1.0, SVG Export Plug-In . SVG Version: 6.00 Build 0)  -->
<svg version="1.1" id="icon_x5F_finish_xA0_Image_1_"
	 xmlns="http://www.w3.org/2000/svg" xmlns:xlink="http://www.w3.org/1999/xlink" x="0px" y="0px" viewBox="0 0 60 60"
	 style="enable-background:new 0 0 60 60;" xml:space="preserve">
<path d="M30,0.001c-16.569,0-30,13.431-30,30s13.431,30,30,30s30-13.431,30-30S46.569,0.001,30,0.001z
	 M44.007,22.61L28.176,39.443c-0.277,0.295-0.66,0.466-1.063,0.474c-0.01,0-0.02,0-0.03,0c-0.393,0-0.771-0.153-1.052-0.431
	l-10-9.833c-0.591-0.581-0.599-1.531-0.018-2.122c0.58-0.59,1.53-0.6,2.121-0.018l8.906,8.757l14.783-15.716
	c0.567-0.604,1.519-0.632,2.12-0.065C44.547,21.057,44.576,22.006,44.007,22.61z"/>
</svg>
