<?xml version="1.0" encoding="iso-8859-1"?>
<!-- Generator: Adobe Illustrator 16.0.0, SVG Export Plug-In . SVG Version: 6.00 Build 0)  -->
<!DOCTYPE svg PUBLIC "-//W3C//DTD SVG 1.1//EN" "http://www.w3.org/Graphics/SVG/1.1/DTD/svg11.dtd">
<svg x="0px" y="0px"
	 width="20px" height="20px" viewBox="0 0 20 20">
<g>
	<path d="M10,1c-4.971,0-9,4.029-9,9s4.029,9,9,9s9-4.029,9-9
		S14.971,1,10,1z M10,17c-3.866,0-7-3.134-7-7s3.134-7,7-7s7,3.134,7,7S13.866,17,10,17z"/>
	<path d="M10.5,9h-1C9.224,9,9,9.224,9,9.5v4C9,13.776,9.224,14,9.5,14
		h1c0.276,0,0.5-0.224,0.5-0.5v-4C11,9.224,10.776,9,10.5,9z"/>
	<path d="M10.5,6h-1C9.224,6,9,6.224,9,6.5v1C9,7.776,9.224,8,9.5,8h1
		C10.776,8,11,7.776,11,7.5v-1C11,6.224,10.776,6,10.5,6z"/>
</g>
</svg>
