<?xml version="1.0" encoding="utf-8"?>
<!-- Generator: Adobe Illustrator 21.1.0, SVG Export Plug-In . SVG Version: 6.00 Build 0)  -->
<svg version="1.1" id="图层_1" xmlns="http://www.w3.org/2000/svg" xmlns:xlink="http://www.w3.org/1999/xlink" x="0px" y="0px"
	 viewBox="0 0 20 20" style="enable-background:new 0 0 20 20;" xml:space="preserve">
<g>
	<path d="M5.1,0.2c0,0-4.3,4.3-4,10.1c0.2,5.5,2.3,7.7,3.8,9.3L5,19.8C5.2,20,5.5,20,5.7,20c0.1,0,0.2,0,0.2,0H6
		l2.3-2.3l0.1-0.1l-0.1-0.9l-1.5-2.5l-1-0.6l-2.2,0.2c-0.2-0.7-1.1-4.2,0.2-6.9c0.8-0.1,2.4,0,2.4,0L7,6.3l1.5-2.4V2.6L6.4,0.5
		C6.1,0.2,5.6-0.2,5.1,0.2z M5.3,15.3l1,1.8l-0.7,0.6c-0.3-0.2-1.1-1-1.5-2.2L5.3,15.3z M5.5,5C5.1,4.9,4.6,4.8,4.3,4.8
		c0.1-0.3,0.4-1.1,1.4-2.3l0.8,0.8C6.3,3.6,5.8,4.4,5.5,5z"/>
	<path d="M10,10h8c0.4,0,0.8-0.2,0.9-0.6C19.1,9,19,8.6,18.7,8.3l-2.1-2c-0.4-0.4-1-0.4-1.4,0s-0.4,1,0,1.4L15.5,8H10
		C9.4,8,9,8.4,9,9S9.4,10,10,10z"/>
	<path d="M18,11h-8c-0.4,0-0.8,0.2-0.9,0.6S9,12.4,9.3,12.7l1.9,2c0.2,0.2,0.5,0.3,0.7,0.3s0.5-0.1,0.7-0.3
		c0.4-0.4,0.4-1,0-1.4L12.3,13H18c0.6,0,1-0.4,1-1S18.6,11,18,11z"/>
</g>
</svg>
