<?xml version="1.0" encoding="utf-8"?>
<!-- Generator: Adobe Illustrator 21.1.0, SVG Export Plug-In . SVG Version: 6.00 Build 0)  -->
<svg version="1.1" id="图层_1" xmlns="http://www.w3.org/2000/svg" xmlns:xlink="http://www.w3.org/1999/xlink" x="0px" y="0px"
	 viewBox="0 0 20 20" style="enable-background:new 0 0 20 20;" xml:space="preserve">
<g>
	<path class="st0" d="M6.8,14.2l-1-0.6l-2.2,0.2c-0.2-0.7-1.1-4.2,0.2-6.9c0.8-0.1,2.4,0,2.4,0L7,6.3l1.5-2.4V2.6L6.4,0.5
		C6.1,0.2,5.6-0.2,5.1,0.2c0,0-4.3,4.3-4,10.1c0.2,5.5,2.3,7.7,3.8,9.3L5,19.8C5.2,20,5.5,20,5.7,20c0.1,0,0.2,0,0.2,0H6l2.3-2.3
		l0.1-0.1l-0.1-0.9L6.8,14.2z M5.7,2.5l0.8,0.8C6.3,3.6,5.8,4.4,5.5,5C5.1,4.9,4.6,4.8,4.3,4.8C4.4,4.5,4.7,3.7,5.7,2.5z M5.6,17.7
		c-0.3-0.2-1.1-1-1.5-2.2l1.2-0.2l1,1.8L5.6,17.7z"/>
	<path class="st0" d="M18,9h-6.6l1.3-1.3c0.4-0.4,0.4-1,0-1.4s-1-0.4-1.4,0l-3,3c-0.4,0.4-0.4,1,0,1.4l3,3c0.2,0.2,0.5,0.3,0.7,0.3
		s0.5-0.1,0.7-0.3c0.4-0.4,0.4-1,0-1.4L11.4,11H18c0.6,0,1-0.4,1-1S18.6,9,18,9z"/>
</g>
</svg>
