<?xml version="1.0" encoding="utf-8"?>
<!-- Generator: Adobe Illustrator 21.1.0, SVG Export Plug-In . SVG Version: 6.00 Build 0)  -->
<svg version="1.1" id="Layer_1" xmlns="http://www.w3.org/2000/svg" xmlns:xlink="http://www.w3.org/1999/xlink" x="0px" y="0px"
	 viewBox="0 0 20 20" style="enable-background:new 0 0 20 20;" xml:space="preserve">
<g>
	<path class="st0" d="M10,19c5,0,9-4,9-9s-4-9-9-9s-9,4-9,9S5,19,10,19z M10,3c3.9,0,7,3.1,7,7s-3.1,7-7,7s-7-3.1-7-7S6.1,3,10,3z"
		/>
	<path class="st0" d="M9.5,11h1c0.3,0,0.5-0.2,0.5-0.5v-4C11,6.2,10.8,6,10.5,6h-1C9.2,6,9,6.2,9,6.5v4C9,10.8,9.2,11,9.5,11z"/>
	<path class="st0" d="M9.5,14h1c0.3,0,0.5-0.2,0.5-0.5v-1c0-0.3-0.2-0.5-0.5-0.5h-1C9.2,12,9,12.2,9,12.5v1C9,13.8,9.2,14,9.5,14z"
		/>
</g>
</svg>
