<?xml version="1.0" encoding="iso-8859-1"?>
<!-- Generator: Adobe Illustrator 21.1.0, SVG Export Plug-In . SVG Version: 6.00 Build 0)  -->
<svg version="1.1" id="Layer_1" xmlns="http://www.w3.org/2000/svg" xmlns:xlink="http://www.w3.org/1999/xlink" x="0px" y="0px"
	 viewBox="0 0 14 14" style="enable-background:new 0 0 14 14;" xml:space="preserve">
<g>
	<path style="fill:#FDEAB9;" d="M7,13.6c-3.64,0-6.6-2.96-6.6-6.6S3.36,0.4,7,0.4s6.6,2.96,6.6,6.6S10.64,13.6,7,13.6z"/>
	<path style="fill:#FB7424;" d="M7,0.8c3.419,0,6.2,2.781,6.2,6.2s-2.781,6.2-6.2,6.2S0.8,10.419,0.8,7S3.581,0.8,7,0.8 M7,0
		C3.134,0,0,3.134,0,7s3.134,7,7,7s7-3.134,7-7S10.866,0,7,0L7,0z"/>
</g>
<path style="fill:#FB7424;" d="M6.333,10.583c-0.203,0-0.397-0.082-0.539-0.229L3.337,7.813c-0.288-0.298-0.28-0.773,0.018-1.061
	c0.297-0.289,0.772-0.279,1.061,0.018l1.871,1.935l3.55-4.347c0.263-0.321,0.735-0.368,1.056-0.106
	c0.32,0.262,0.368,0.735,0.106,1.056l-4.084,5c-0.136,0.166-0.335,0.266-0.55,0.274C6.354,10.583,6.343,10.583,6.333,10.583z"/>
</svg>
